<svg width="61" height="66" viewBox="0 0 61 66" fill="none" xmlns="http://www.w3.org/2000/svg">
<path d="M52.174 42.1606C52.1727 41.0233 51.7185 39.933 50.911 39.1288C50.1035 38.3247 49.0087 37.8723 47.8667 37.8711H34.8321C36.6323 33.5263 36.6388 28.6498 34.8504 24.3003C34.8348 24.2621 34.8168 24.2249 34.7967 24.1889C34.4291 23.5302 33.8842 22.9867 33.2233 22.6196C32.5624 22.2525 31.8118 22.0764 31.0558 22.111C30.2999 22.1456 29.5687 22.3896 28.9444 22.8155C28.3201 23.2414 27.8276 23.8324 27.5222 24.5219C27.474 24.6308 27.4451 24.7471 27.4366 24.8658L27.1289 29.216C26.6683 31.716 25.3138 33.9652 23.316 35.547C22.5158 35.8268 21.0508 36.8162 17.229 40.4379V40.3297C17.2284 39.7595 17.0007 39.2128 16.5958 38.8096C16.1909 38.4065 15.642 38.1797 15.0694 38.1792H4.1984C3.62586 38.1797 3.07693 38.4065 2.67209 38.8097C2.26724 39.2129 2.03954 39.7595 2.03896 40.3297V61.9343C2.03937 62.5046 2.26699 63.0514 2.67186 63.4547C3.07672 63.8581 3.62575 64.0849 4.1984 64.0855H15.0688C15.6413 64.0849 16.1903 63.8582 16.5952 63.455C17 63.0518 17.2277 62.5052 17.2283 61.935V61.8402C20.2176 62.4968 21.7778 63.2772 23.5975 64.9608C24.313 65.6386 25.266 66.0114 26.2534 65.9997H43.1032C43.9209 66 44.7217 65.7684 45.412 65.3321C46.1023 64.8957 46.6536 64.2725 47.0013 63.5356C47.349 62.7986 47.4788 61.9782 47.3755 61.1705C47.2721 60.3627 46.9399 59.601 46.4178 58.9744C47.7625 58.1688 48.7192 56.7266 48.7192 55.1943C48.7202 54.241 48.4008 53.3148 47.8117 52.5634C49.1815 51.7555 50.1642 50.2642 50.1642 48.6778C50.1652 47.7834 49.884 46.9113 49.3602 46.1849C50.1854 45.88 50.8972 45.331 51.4002 44.6117C51.9031 43.8924 52.1731 43.0371 52.174 42.1606ZM15.1573 61.9347C15.1564 61.9578 15.1468 61.9797 15.1304 61.996C15.114 62.0124 15.092 62.0219 15.0688 62.0227H4.1984C4.17522 62.0219 4.15321 62.0124 4.13681 61.996C4.12041 61.9797 4.11083 61.9578 4.10999 61.9347V40.3301C4.11086 40.307 4.12045 40.2851 4.13685 40.2688C4.15324 40.2525 4.17523 40.2429 4.1984 40.2421H15.0688C15.0919 40.2429 15.1139 40.2525 15.1304 40.2688C15.1468 40.2851 15.1564 40.307 15.1573 40.3301V61.9347ZM47.8667 44.3874H44.2677C43.993 44.3874 43.7296 44.496 43.5354 44.6894C43.3412 44.8828 43.2321 45.1451 43.2321 45.4186C43.2321 45.6921 43.3412 45.9544 43.5354 46.1478C43.7296 46.3412 43.993 46.4499 44.2677 46.4499H45.8569C46.4497 46.4507 47.0181 46.6856 47.4372 47.1031C47.8564 47.5205 48.0923 48.0865 48.0931 48.6769C48.0931 49.837 46.9419 51.0173 45.7604 51.1191C45.3253 50.9762 44.8701 50.9036 44.412 50.904C44.1374 50.904 43.874 51.0126 43.6798 51.206C43.4856 51.3994 43.3765 51.6617 43.3765 51.9352C43.3765 52.2087 43.4856 52.471 43.6798 52.6644C43.874 52.8578 44.1374 52.9665 44.412 52.9665C44.6738 52.9662 44.9337 53.0119 45.1796 53.1016C45.2069 53.1135 45.2346 53.1244 45.2631 53.1339C45.6725 53.3023 46.0227 53.5879 46.2692 53.9545C46.5157 54.3211 46.6476 54.7522 46.6481 55.1934C46.6481 56.3304 45.451 57.488 44.2322 57.5699C43.8642 57.4704 43.4845 57.4202 43.1031 57.4204C42.8285 57.4204 42.5651 57.5291 42.3709 57.7225C42.1767 57.9159 42.0676 58.1782 42.0676 58.4517C42.0676 58.7252 42.1767 58.9875 42.3709 59.1809C42.5651 59.3743 42.8285 59.4829 43.1031 59.4829C43.3199 59.4828 43.5357 59.5141 43.7434 59.576C43.7679 59.5847 43.7929 59.5927 43.8182 59.5997C44.3209 59.7684 44.747 60.1096 45.0204 60.5623C45.2938 61.0149 45.3967 61.5496 45.3107 62.0709C45.2248 62.5922 44.9556 63.0661 44.5513 63.4079C44.1469 63.7498 43.6337 63.9374 43.1032 63.9372H26.2534C26.0236 63.9424 25.795 63.9019 25.581 63.8182C25.367 63.7345 25.1719 63.6092 25.007 63.4497C22.8078 61.4149 20.8855 60.4886 17.2283 59.7308V43.3014L17.412 43.1233C22.4946 38.2078 23.7397 37.5696 24.004 37.4921C24.1575 37.4606 24.3018 37.395 24.4262 37.3C26.9291 35.3908 28.624 32.618 29.1774 29.527C29.1839 29.4908 29.1885 29.4544 29.1912 29.4177L29.4889 25.2096C29.6571 24.901 29.9044 24.6423 30.2056 24.4598C30.5069 24.2774 30.8513 24.1777 31.2038 24.1708C31.5563 24.164 31.9043 24.2504 32.2124 24.4211C32.5206 24.5917 32.7778 24.8407 32.9579 25.1426C33.8226 27.2716 34.2107 29.5628 34.0952 31.8565C33.9796 34.1502 33.3632 36.3912 32.2888 38.4233C32.2059 38.5805 32.1651 38.7563 32.1705 38.9338C32.1758 39.1112 32.2271 39.2843 32.3193 39.4362C32.4115 39.5882 32.5415 39.7138 32.6968 39.8011C32.8521 39.8883 33.0273 39.9341 33.2056 39.9341H47.8667C48.4569 39.9386 49.0213 40.1752 49.4371 40.5923C49.8528 41.0095 50.0861 41.5734 50.0861 42.1611C50.0861 42.7489 49.8528 43.3128 49.4371 43.7299C49.0213 44.1471 48.4569 44.3829 47.8667 44.3874ZM11.647 43.6294V43.7538C11.647 44.0273 11.5379 44.2896 11.3437 44.483C11.1495 44.6764 10.8861 44.7851 10.6115 44.7851C10.3369 44.7851 10.0735 44.6764 9.87927 44.483C9.68508 44.2896 9.57598 44.0273 9.57598 43.7538V43.6294C9.57598 43.3559 9.68508 43.0936 9.87927 42.9002C10.0735 42.7068 10.3369 42.5982 10.6115 42.5982C10.8861 42.5982 11.1495 42.7068 11.3437 42.9002C11.5379 43.0936 11.647 43.3559 11.647 43.6294ZM42.719 8.84062C42.6566 8.6492 42.5393 8.48017 42.3815 8.35435C42.2238 8.22853 42.0326 8.15142 41.8313 8.13254L34.4094 7.43645L31.4504 0.621976C31.3702 0.437248 31.2375 0.279928 31.0686 0.169409C30.8997 0.0588892 30.702 0 30.4999 0C30.2978 0 30.1002 0.0588892 29.9313 0.169409C29.7624 0.279928 29.6297 0.437248 29.5494 0.621976L26.5908 7.43632L19.169 8.13241C18.9678 8.1513 18.7766 8.2284 18.6189 8.35421C18.4611 8.48002 18.3438 8.64904 18.2814 8.84044C18.2189 9.03184 18.2141 9.23725 18.2674 9.43136C18.3208 9.62547 18.43 9.79979 18.5816 9.93284L24.1751 14.8405L22.5465 22.085C22.5024 22.2814 22.5169 22.4864 22.5883 22.6747C22.6597 22.8629 22.7849 23.0263 22.9484 23.1445C23.1118 23.2628 23.3065 23.3309 23.5084 23.3404C23.7102 23.3498 23.9105 23.3002 24.0844 23.1978L30.4999 19.4168L36.9152 23.198C37.0891 23.3005 37.2894 23.3501 37.4912 23.3406C37.6931 23.3312 37.8877 23.2631 38.0512 23.1448C38.2147 23.0265 38.3399 22.8632 38.4113 22.6749C38.4827 22.4866 38.4972 22.2817 38.4531 22.0853L36.8246 14.8408L42.4181 9.93309C42.5699 9.80012 42.6792 9.62582 42.7327 9.43169C42.7862 9.23757 42.7814 9.03209 42.719 8.84062ZM34.9963 13.6966C34.8571 13.8188 34.7534 13.976 34.696 14.1517C34.6387 14.3275 34.6298 14.5153 34.6703 14.6956L35.9096 20.2083L31.028 17.331C30.8683 17.2369 30.6862 17.1872 30.5006 17.1872C30.315 17.1872 30.1328 17.2369 29.9731 17.331L25.0915 20.2083L26.3302 14.6953C26.3707 14.5149 26.3618 14.3271 26.3045 14.1513C26.2471 13.9756 26.1434 13.8184 26.0042 13.6962L21.7481 9.96184L27.3956 9.43204C27.5803 9.41469 27.757 9.34823 27.9071 9.2396C28.0572 9.13098 28.1752 8.98419 28.2488 8.81458L30.4999 3.62986L32.751 8.81497C32.8246 8.98458 32.9427 9.13137 33.0928 9.23999C33.2429 9.34861 33.4196 9.41507 33.6043 9.43242L39.2519 9.96223L34.9963 13.6966ZM60.9497 14.8835C60.8873 14.692 60.77 14.523 60.6122 14.3972C60.4545 14.2714 60.2632 14.1943 60.062 14.1754L54.8318 13.6848L52.7464 8.88264C52.6662 8.69791 52.5334 8.54059 52.3645 8.43007C52.1956 8.31955 51.998 8.26066 51.7959 8.26066C51.5938 8.26066 51.3961 8.31955 51.2272 8.43007C51.0583 8.54059 50.9256 8.69791 50.8454 8.88264L48.7606 13.6848L43.5302 14.1754C43.329 14.1942 43.1377 14.2713 42.98 14.3972C42.8222 14.523 42.7049 14.692 42.6425 14.8834C42.58 15.0749 42.5752 15.2803 42.6286 15.4744C42.6819 15.6686 42.7912 15.8429 42.9428 15.9759L46.8847 19.4343L45.7371 24.5398C45.6929 24.7362 45.7075 24.9412 45.7789 25.1295C45.8504 25.3178 45.9756 25.4811 46.1391 25.5994C46.3027 25.7177 46.4974 25.7857 46.6993 25.7951C46.9012 25.8045 47.1014 25.7548 47.2753 25.6522L51.7963 22.9876L56.3168 25.6522C56.4907 25.7548 56.691 25.8044 56.8929 25.7949C57.0947 25.7855 57.2894 25.7174 57.453 25.5992C57.6165 25.4809 57.7416 25.3175 57.813 25.1292C57.8845 24.9409 57.899 24.7359 57.8548 24.5395L56.7071 19.4341L60.6488 15.9757C60.8004 15.8427 60.9096 15.6684 60.963 15.4743C61.0163 15.2802 61.0121 15.0748 60.9497 14.8835ZM54.879 18.2903C54.7398 18.4125 54.6361 18.5696 54.5787 18.7454C54.5214 18.9211 54.5125 19.109 54.5531 19.2893L55.3115 22.6628L52.3235 20.9021C52.1638 20.8079 51.9816 20.7583 51.796 20.7583C51.6104 20.7583 51.4282 20.8079 51.2685 20.9021L48.2815 22.6628L49.0397 19.2893C49.0803 19.109 49.0714 18.9211 49.0141 18.7454C48.9567 18.5696 48.853 18.4125 48.7138 18.2903L46.1091 16.0052L49.5651 15.6809C49.7499 15.6635 49.9265 15.5971 50.0767 15.4885C50.2268 15.3798 50.3449 15.233 50.4185 15.0634L51.796 11.8904L53.1735 15.0634C53.2472 15.233 53.3652 15.3798 53.5153 15.4885C53.6655 15.5971 53.8422 15.6635 54.0269 15.6809L57.483 16.0052L54.879 18.2903ZM17.4709 14.1754L12.2406 13.6848L10.1544 8.88264C10.0742 8.69791 9.94151 8.54059 9.77262 8.43007C9.60373 8.31955 9.40606 8.26066 9.20397 8.26066C9.00188 8.26066 8.8042 8.31955 8.63531 8.43007C8.46642 8.54059 8.33369 8.69791 8.25349 8.88264L6.16873 13.6848L0.938458 14.1754C0.737239 14.1942 0.545962 14.2713 0.388209 14.3972C0.230455 14.523 0.113121 14.692 0.0506719 14.8834C-0.0117771 15.0749 -0.016611 15.2803 0.036766 15.4744C0.090143 15.6686 0.199398 15.8429 0.35106 15.9759L4.29276 19.4343L3.14502 24.5398C3.10093 24.7362 3.1155 24.9411 3.18694 25.1294C3.25838 25.3176 3.38356 25.4809 3.54705 25.5992C3.71055 25.7174 3.90522 25.7855 4.10707 25.7949C4.30892 25.8043 4.50913 25.7547 4.68302 25.6522L9.20397 22.9876L13.7245 25.6522C13.8984 25.7547 14.0987 25.8043 14.3005 25.7948C14.5024 25.7854 14.697 25.7173 14.8605 25.599C15.024 25.4807 15.1492 25.3174 15.2206 25.1291C15.292 24.9409 15.3065 24.7359 15.2624 24.5395L14.1147 19.4341L18.0565 15.9757C18.2082 15.8426 18.3174 15.6683 18.3708 15.4742C18.4242 15.2801 18.4193 15.0746 18.3569 14.8832C18.2944 14.6918 18.1771 14.5227 18.0193 14.3969C17.8616 14.2711 17.6703 14.194 17.4691 14.1751L17.4709 14.1754ZM12.2876 18.2903C12.1484 18.4125 12.0447 18.5696 11.9873 18.7454C11.93 18.9211 11.9211 19.109 11.9617 19.2893L12.7199 22.6627L9.73143 20.9021C9.57173 20.8079 9.38955 20.7583 9.20397 20.7583C9.01838 20.7583 8.83621 20.8079 8.6765 20.9021L5.68929 22.6628L6.44768 19.2893C6.48821 19.109 6.47935 18.9211 6.42201 18.7454C6.36467 18.5696 6.26097 18.4125 6.12175 18.2903L3.51716 16.0052L6.9732 15.6809C7.15795 15.6635 7.33464 15.5971 7.48477 15.4885C7.63489 15.3798 7.75296 15.233 7.8266 15.0634L9.20397 11.8905L10.5815 15.0634C10.6551 15.233 10.7731 15.3798 10.9232 15.4884C11.0733 15.5971 11.25 15.6635 11.4347 15.6809L14.8908 16.0052L12.2876 18.2903Z" fill="#1C1C1C"/>
</svg>
