<svg width="64" height="60" viewBox="0 0 64 60" fill="none" xmlns="http://www.w3.org/2000/svg">
<path d="M63.1346 39.7459C63.3671 39.7335 63.5768 39.6344 63.7312 39.4805C63.8969 39.3165 63.999 39.0889 63.999 38.8372L63.9995 11.3587C63.9969 10.192 63.5196 9.13559 62.7503 8.37111C61.9811 7.60695 60.9189 7.13419 59.7464 7.13419L45.4168 7.1337V4.23749C45.4148 3.07073 44.9375 2.01434 44.168 1.24986C43.3989 0.485536 42.3367 0.0129449 41.1641 0.0129449H31.8374C31.5847 0.0129449 31.3564 0.114495 31.1917 0.278675C31.0265 0.443346 30.9241 0.671466 30.9241 0.923133C30.9241 1.17496 31.0262 1.40243 31.1909 1.56645C31.3572 1.73112 31.5855 1.83316 31.8379 1.83316H41.1664C41.8327 1.83316 42.4367 2.10216 42.8748 2.53698C43.3127 2.97147 43.5847 3.57275 43.587 4.23732L43.588 7.23983L43.2667 7.11866C43.2344 7.10656 39.999 7.13207 36.1977 7.13289C31.4109 7.13419 25.8399 7.13501 24.8626 7.09086V7.13076H20.1309C18.5775 7.13992 17.1707 7.77211 16.1495 8.78941C15.1285 9.80671 14.4937 11.208 14.4836 12.7556L14.4846 16.5783C14.4846 17.6036 14.0673 18.5323 13.3925 19.2042C12.7179 19.8763 11.7858 20.292 10.7562 20.292C9.72833 20.292 8.79713 19.877 8.12254 19.206C7.44811 18.5351 7.03012 17.6077 7.02881 16.5831V16.5545L7.03439 16.5304C7.03734 16.5175 7.03012 14.0931 7.03028 11.3771L7.03012 4.23716C7.03028 3.57357 7.30019 2.97277 7.73607 2.53861C8.17261 2.10363 8.77595 1.8343 9.44201 1.83381L27.2331 1.83283C27.4861 1.83283 27.715 1.73079 27.8803 1.56628C28.0451 1.40227 28.1472 1.17464 28.1472 0.922806C28.1472 0.671629 28.0448 0.444001 27.8795 0.279329C27.7148 0.114331 27.4863 0.0126178 27.2336 0.0126178L15.4027 0.0116367C15.3731 0.0103285 12.9263 0.00493209 11.1716 0.0055862C10.2174 0.00591325 9.50374 -0.00291717 9.49257 0.00100746L9.45629 0.013599L9.4164 0.013926C8.25191 0.02292 7.19873 0.498945 6.43597 1.26294C5.67322 2.02694 5.20105 3.0789 5.1981 4.23945L5.19908 16.5764C5.19908 18.1044 5.81966 19.488 6.82326 20.4902C7.82735 21.4928 9.21446 22.1144 10.7474 22.1181L23.9457 22.1178V55.7746C23.9477 56.9412 24.4249 57.9976 25.1944 58.7619C25.9636 59.5261 27.0256 59.9987 28.1983 59.9987L59.5087 60V59.9987H59.7464C60.9189 59.9987 61.981 59.5261 62.7503 58.7618C63.5198 57.9973 63.997 56.9409 64 55.7741L63.999 43.4233C63.999 43.1717 63.8971 42.9442 63.7322 42.7802C63.5671 42.6157 63.3381 42.5136 63.0852 42.5136C62.8327 42.5136 62.604 42.6155 62.4387 42.7797C62.2737 42.9444 62.1716 43.1721 62.1716 43.4236V55.7743C62.1683 56.4387 61.8961 57.04 61.4584 57.4745C61.0202 57.9093 60.4161 58.1783 59.75 58.1783L28.195 58.1778C27.529 58.1783 26.9246 57.9093 26.4866 57.4743C26.0488 57.0398 25.7767 56.4386 25.7744 55.774L25.7734 21.2333H25.7826C25.7726 20.8886 25.7746 19.4654 25.777 17.8715C25.7805 15.5326 25.8122 12.88 25.7986 12.8486L25.7792 12.8045L25.779 12.7544C25.7769 12.1357 25.6698 11.5244 25.4672 10.9455C25.265 10.3679 24.9664 9.82224 24.5804 9.33395L24.2965 8.97501C24.4326 8.96814 24.6705 8.97534 24.794 8.95016L24.8431 8.95212L24.878 8.95539L59.75 8.95506C60.4162 8.95457 61.0202 9.22341 61.4586 9.65823C61.8964 10.0927 62.1685 10.694 62.1708 11.3587L62.1718 38.8647C62.1793 39.1049 62.2798 39.3213 62.438 39.4789C62.6044 39.6436 62.8327 39.7456 63.0851 39.7456H63.1348L63.1346 39.7459ZM40.1028 9.19136L55.1039 9.19119C50.3779 9.03699 45.2174 9.09439 40.1028 9.19136ZM10.7467 24.233L10.4893 24.2345C7.83572 24.2639 5.18677 24.7118 3.20551 25.5654C1.28105 26.3943 -0.00114845 27.602 7.7189e-07 29.1694C0.0375967 35.4548 0.00114999 41.7539 0.00114999 48.0413C0.00114999 49.5209 1.14676 50.6841 2.89768 51.5099C4.9671 52.4858 7.86528 52.9857 10.7493 52.9857C13.6332 52.9857 16.5311 52.4858 18.6002 51.5099C20.3507 50.6842 21.4962 49.5209 21.4962 48.0413L21.4967 29.1676C21.4903 27.6893 20.3437 26.5288 18.5934 25.7052C16.5243 24.7318 13.6301 24.234 10.7467 24.233ZM19.6527 41.8412C19.3194 42.7126 18.3859 43.3906 17.1067 43.8786C15.412 44.525 13.0849 44.8491 10.7597 44.8501C8.4348 44.8512 6.10549 44.5294 4.40595 43.8843C3.11981 43.3962 2.18024 42.7164 1.84368 41.8412L1.82792 41.8002V38.3123L2.18533 38.5205C2.52254 38.7169 2.87207 38.8959 3.23063 39.0557C3.58557 39.2138 3.94955 39.3531 4.31993 39.472C6.67911 40.1996 9.56399 40.5389 12.3738 40.3585C14.899 40.1965 17.3598 39.6143 19.3155 38.5167L19.6684 38.3187L19.6675 41.8023L19.6527 41.8412ZM2.18631 32.2489C4.27199 33.483 7.50902 34.1 10.7506 34.0997C13.9923 34.0994 17.2275 33.4821 19.3099 32.2476L19.6683 32.0352V35.4627C19.6832 35.8161 19.3508 36.2931 18.7131 36.7434C18.2024 37.1042 17.4843 37.4661 16.587 37.7468C14.602 38.4284 10.6269 38.8001 7.28902 38.3247C4.77551 37.9666 2.60512 37.1235 1.85205 35.5652L1.82792 35.5154V32.037L2.18631 32.2489ZM10.9844 26.0549C13.2591 26.0778 15.1967 26.4277 16.6516 26.9099C18.5626 27.5434 19.6676 28.4415 19.6676 29.1687C19.6676 29.8959 18.5626 30.794 16.6516 31.4275C15.1463 31.9264 13.1241 32.2839 10.7467 32.2839C8.35796 32.2783 6.33024 31.922 4.82526 31.4226C2.93856 30.7963 1.84286 29.9103 1.82891 29.1695V29.164C1.83465 28.432 2.93659 27.54 4.83708 26.9103C6.34141 26.4118 8.36535 26.0555 10.7467 26.0539L10.9844 26.0537V26.0549ZM10.7488 51.1653C8.3706 51.1653 6.34847 50.8069 4.84315 50.3063C2.93282 49.671 1.82792 48.7701 1.82792 48.0411V44.6326L2.17334 44.8084C3.39529 45.4308 4.68472 45.9048 6.01158 46.2229C7.33663 46.5406 8.70257 46.703 10.0793 46.703C10.2186 46.703 10.3244 46.7017 10.4108 46.6999C10.6498 46.6935 10.8495 46.6935 11.0885 46.6999C11.1745 46.7017 11.2799 46.703 11.4192 46.703C12.7949 46.703 14.1599 46.5406 15.4845 46.2231C16.8113 45.905 18.1009 45.4311 19.3237 44.8089L19.6691 44.6331V48.0407C19.6691 48.77 18.5644 49.6705 16.6542 50.3058C15.1664 50.8007 13.1734 51.1567 10.8313 51.1647L10.7488 51.1653ZM30.996 12.6884C30.7435 12.6884 30.5155 12.7902 30.3503 12.9546C30.1845 13.1191 30.0819 13.3467 30.0817 13.5972L30.0827 13.5981C30.0827 13.8499 30.1848 14.0774 30.3495 14.2414L30.3505 14.2424C30.5151 14.4065 30.7437 14.5081 30.9963 14.5081H56.9533C57.2061 14.5081 57.4345 14.4065 57.5992 14.2424C57.7645 14.0767 57.8669 13.8492 57.8669 13.5981C57.8669 13.3469 57.7645 13.1193 57.5992 12.9546C57.4409 12.7958 57.2237 12.6959 56.9825 12.6884H30.996ZM56.9533 19.1503H30.996C30.744 19.1503 30.5156 19.2523 30.3503 19.417C30.185 19.5812 30.0827 19.809 30.0827 20.0603C30.0827 20.3115 30.1851 20.5391 30.3505 20.7038C30.5151 20.8688 30.7437 20.9705 30.9963 20.9705L56.9541 20.97C57.2061 20.97 57.4345 20.8685 57.5997 20.7043C57.7648 20.5388 57.8676 20.3113 57.8679 20.0611L57.8669 20.0603C57.8669 19.8085 57.765 19.581 57.6002 19.417L57.5992 19.416C57.4345 19.2518 57.206 19.1503 56.9533 19.1503ZM56.9484 27.4301C57.2014 27.4296 57.4297 27.3281 57.5949 27.1639C57.7601 26.9984 57.8628 26.7709 57.8632 26.5207L57.8622 26.5199C57.8622 26.2681 57.7602 26.0406 57.5954 25.8766C57.4291 25.7119 57.2007 25.6099 56.9484 25.6099H49.2003C48.9482 25.6099 48.7196 25.7119 48.5543 25.8766C48.3886 26.0406 48.2865 26.2683 48.2865 26.5199C48.2865 26.7711 48.389 26.9987 48.5543 27.1634C48.7196 27.3281 48.9482 27.4301 49.2003 27.4301H56.9484ZM44.5947 27.4296C44.8479 27.4296 45.0761 27.3281 45.2412 27.1639C45.4066 26.9989 45.5092 26.7714 45.5094 26.5207L45.5084 26.5199C45.5084 26.2684 45.4061 26.0406 45.2412 25.876C45.0759 25.7116 44.8472 25.6099 44.5947 25.6099H30.9958C30.7438 25.6099 30.5155 25.7119 30.3501 25.8766C30.1848 26.0408 30.0825 26.2686 30.0825 26.5199C30.0825 26.7711 30.185 26.9987 30.3503 27.1634C30.5086 27.3222 30.7258 27.4221 30.9669 27.4296H44.5947ZM57.8655 32.9254C57.8499 32.6988 57.7514 32.4949 57.6 32.3441C57.4352 32.1799 57.2068 32.0782 56.954 32.0782L30.9937 32.0785C30.742 32.0785 30.5138 32.1804 30.3486 32.3447C30.183 32.5097 30.0802 32.7372 30.0801 32.9874L30.081 32.9881C30.081 33.2399 30.1832 33.4673 30.3478 33.6314C30.5141 33.796 30.7425 33.8981 30.9948 33.8981L56.9517 33.8995C57.2037 33.8994 57.4324 33.7972 57.5977 33.6325C57.7628 33.4677 57.8653 33.2399 57.8653 32.9881V32.9251L57.8655 32.9254ZM41.9638 42.6302V39.6374C41.9638 38.8129 41.6281 38.066 41.0857 37.5257C40.5431 36.9853 39.7936 36.6509 38.9658 36.6509C38.1381 36.6509 37.3886 36.9853 36.846 37.5257C36.3034 38.066 35.9677 38.8127 35.9677 39.6372V42.6304C35.9677 43.4547 36.3034 44.2014 36.846 44.7418C37.3885 45.2823 38.1381 45.6167 38.9658 45.6167C39.7934 45.6167 40.5431 45.2823 41.0857 44.7418C41.6283 44.2015 41.9638 43.4547 41.9638 42.6302ZM40.1364 42.6306C40.1364 42.9519 40.0052 43.2434 39.7936 43.4544C39.582 43.6652 39.2893 43.7958 38.9663 43.7958C38.6442 43.7958 38.3517 43.665 38.1394 43.4539C37.9273 43.2436 37.7961 42.952 37.7961 42.6304V39.6372C37.7961 39.3165 37.9273 39.0253 38.1389 38.814L38.1399 38.813C38.352 38.6021 38.6444 38.4716 38.9663 38.4716C39.2893 38.4716 39.582 38.6022 39.7936 38.813C40.0051 39.0248 40.1364 39.3164 40.1364 39.6372V42.6306ZM49.0765 54.4466C49.8667 54.4216 50.5804 54.092 51.1023 53.5718C51.6452 53.0308 51.9813 52.284 51.9821 51.4603L51.9811 48.4671C51.9811 47.6428 51.6455 46.8961 51.1031 46.356C50.5607 45.8157 49.8112 45.4815 48.9836 45.4815C48.1558 45.4815 47.4064 45.8157 46.864 46.356C46.3215 46.8963 45.986 47.6428 45.986 48.4671V51.4603C45.9861 52.2832 46.3227 53.0294 46.8656 53.5701C47.408 54.1109 48.1572 54.4457 48.9836 54.4466H49.0765ZM47.8134 48.4688C47.8134 48.1476 47.9446 47.8562 48.1562 47.6453C48.368 47.4333 48.6607 47.3027 48.9836 47.3027C49.3065 47.3027 49.5993 47.4333 49.8109 47.6441C50.0223 47.8559 50.1537 48.1474 50.1537 48.4683V51.4602C50.1537 51.7818 50.0225 52.0734 49.8109 52.2842C49.5993 52.495 49.3065 52.6256 48.9836 52.6256C48.6615 52.6256 48.3689 52.4948 48.1567 52.2837C47.9445 52.0734 47.8134 51.7818 47.8134 51.4602V48.4688ZM40.1806 51.9892L40.1919 51.9883C40.3434 51.9883 40.4899 51.9511 40.6191 51.8829C40.7489 51.8144 40.8621 51.7151 40.9463 51.5915L48.5137 40.5312C48.562 40.4579 48.5994 40.378 48.6247 40.2944C48.6503 40.2099 48.6635 40.1211 48.6635 40.0313C48.6635 39.7801 48.561 39.5525 48.3957 39.3878C48.2304 39.2231 48.0019 39.1211 47.7497 39.1211C47.6008 39.1211 47.4563 39.1572 47.3282 39.2235C47.1995 39.29 47.0869 39.3868 47.0015 39.508L39.4359 50.5644C39.3868 50.6373 39.3485 50.7189 39.3224 50.8054C39.296 50.8891 39.2829 50.9789 39.2829 51.0715C39.2829 51.3231 39.3842 51.5512 39.5483 51.7169C39.71 51.8799 39.9332 51.9831 40.1802 51.9893L40.1806 51.9892ZM23.9009 12.7342C23.9534 13.2543 23.9499 14.8248 23.9465 16.396C23.9426 18.1804 23.8404 19.8492 23.89 19.9084L24.2167 20.2968H14.7992L15.1702 19.8991C16.4055 18.5756 16.359 16.0954 16.3213 14.079C16.3124 13.6056 16.304 13.1567 16.3124 12.7505C16.329 11.7121 16.7619 10.7759 17.4514 10.0999C18.1416 9.42291 19.0882 9.00559 20.1308 9.00559C21.1697 9.00559 22.1141 9.42029 22.804 10.0939C23.493 10.7664 23.9276 11.6984 23.9481 12.7333L23.9009 12.7342Z" fill="#1C1C1C"/>
</svg>
