<svg width="60" height="59" viewBox="0 0 60 59" fill="none" xmlns="http://www.w3.org/2000/svg">
<path d="M4.95 58.316H55.05C56.3623 58.3144 57.6205 57.7924 58.5484 56.8644C59.4764 55.9364 59.9984 54.6783 60 53.366V22.306C59.9984 20.9936 59.4764 19.7355 58.5484 18.8075C57.6205 17.8796 56.3623 17.3576 55.05 17.356H44.21L44.529 17.013C44.6613 16.8703 44.7491 16.6922 44.7817 16.5004C44.8142 16.3085 44.7901 16.1114 44.7123 15.9331C44.6345 15.7547 44.5064 15.603 44.3436 15.4964C44.1809 15.3898 43.9906 15.333 43.796 15.333H38.776V11.109C38.7739 9.22437 38.0244 7.41755 36.6918 6.08484C35.3593 4.75213 33.5526 4.00235 31.668 3.99997H22.259C21.9938 3.99997 21.7394 4.10532 21.5519 4.29286C21.3644 4.4804 21.259 4.73475 21.259 4.99997C21.259 5.26518 21.3644 5.51954 21.5519 5.70707C21.7394 5.89461 21.9938 5.99997 22.259 5.99997C23.459 6.00129 24.6094 6.47856 25.4579 7.32706C26.3064 8.17557 26.7837 9.326 26.785 10.526V15.333H23.092C22.8974 15.333 22.7071 15.3898 22.5444 15.4964C22.3816 15.603 22.2535 15.7547 22.1757 15.9331C22.0979 16.1114 22.0738 16.3085 22.1063 16.5004C22.1389 16.6922 22.2267 16.8703 22.359 17.013L22.678 17.356H20.378V13.144H24.071C24.2656 13.1439 24.4559 13.0871 24.6186 12.9805C24.7814 12.874 24.9095 12.7222 24.9873 12.5439C25.0651 12.3655 25.0892 12.1684 25.0567 11.9766C25.0241 11.7848 24.9363 11.6066 24.804 11.464L14.45 0.305968C14.3541 0.209035 14.24 0.132081 14.1141 0.0795617C13.9883 0.0270423 13.8533 0 13.717 0C13.5807 0 13.4457 0.0270423 13.3199 0.0795617C13.194 0.132081 13.0799 0.209035 12.984 0.305968L2.632 11.464C2.4997 11.6066 2.41189 11.7848 2.37932 11.9766C2.34675 12.1684 2.37085 12.3655 2.44865 12.5439C2.52646 12.7222 2.65459 12.874 2.81736 12.9805C2.98012 13.0871 3.17044 13.1439 3.365 13.144H8.385V17.351H4.95C3.6368 17.3526 2.37791 17.8753 1.44981 18.8043C0.521706 19.7334 0.00026401 20.9928 0 22.306V53.366C0.00158782 54.6783 0.523614 55.9364 1.45158 56.8644C2.37954 57.7924 3.63767 58.3144 4.95 58.316ZM55.05 19.356C55.8321 19.3568 56.582 19.6678 57.1351 20.2209C57.6881 20.7739 57.9992 21.5238 58 22.306V34.457L41.455 20.327L42.355 19.356H55.05ZM27.785 17.333C28.0502 17.333 28.3046 17.2276 28.4921 17.0401C28.6796 16.8525 28.785 16.5982 28.785 16.333V10.526C28.7865 8.83697 28.1305 7.21371 26.956 5.99997H31.668C33.0224 6.00156 34.3209 6.54037 35.2785 7.49817C36.2361 8.45598 36.7747 9.75456 36.776 11.109V16.333C36.776 16.5982 36.8814 16.8525 37.0689 17.0401C37.2564 17.2276 37.5108 17.333 37.776 17.333H41.5L33.44 26.021L25.38 17.333H27.785ZM5.657 11.144L13.717 2.45597L21.777 11.144H19.377C19.1118 11.144 18.8574 11.2493 18.6699 11.4369C18.4824 11.6244 18.377 11.8788 18.377 12.144V17.951C18.3764 19.6401 19.0322 21.2633 20.206 22.478H15.493C14.1386 22.4764 12.8401 21.9376 11.8825 20.9798C10.9249 20.022 10.3863 18.7234 10.385 17.369V12.144C10.385 11.8788 10.2796 11.6244 10.0921 11.4369C9.90457 11.2493 9.65022 11.144 9.385 11.144H5.657ZM2 22.306C2.00079 21.5238 2.31185 20.7739 2.86491 20.2209C3.41797 19.6678 4.16785 19.3568 4.95 19.356H8.673C9.10431 20.8316 10.0018 22.1279 11.2311 23.051C12.4605 23.9741 13.9557 24.4743 15.493 24.477H24.9C25.1652 24.477 25.4196 24.3716 25.6071 24.1841C25.7946 23.9965 25.9 23.7422 25.9 23.477C25.9 23.2118 25.7946 22.9574 25.6071 22.7699C25.4196 22.5823 25.1652 22.477 24.9 22.477C23.9489 22.4735 23.0231 22.1699 22.2546 21.6095C21.4861 21.0491 20.9141 20.2605 20.62 19.356H24.531L32.709 28.172C32.8026 28.2728 32.916 28.3533 33.0421 28.4083C33.1683 28.4633 33.3044 28.4917 33.442 28.4917C33.5796 28.4917 33.7157 28.4633 33.8419 28.4083C33.968 28.3533 34.0814 28.2728 34.175 28.172L40.091 21.794L58 37.087V53.366C57.9992 54.1481 57.6881 54.898 57.1351 55.4511C56.582 56.0041 55.8321 56.3152 55.05 56.316H4.95C4.16785 56.3152 3.41797 56.0041 2.86491 55.4511C2.31185 54.898 2.00079 54.1481 2 53.366V22.306Z" fill="black"/>
<path d="M13.6 39.202H20.7C21.9752 39.202 23.1981 38.6954 24.0998 37.7937C25.0014 36.8921 25.508 35.6691 25.508 34.394C25.508 33.1188 25.0014 31.8959 24.0998 30.9942C23.1981 30.0925 21.9752 29.586 20.7 29.586H13.6C12.3248 29.586 11.1019 30.0925 10.2002 30.9942C9.29856 31.8959 8.792 33.1188 8.792 34.394C8.792 35.6691 9.29856 36.8921 10.2002 37.7937C11.1019 38.6954 12.3248 39.202 13.6 39.202ZM13.6 31.586H20.7C21.4447 31.586 22.159 31.8818 22.6856 32.4084C23.2122 32.935 23.508 33.6492 23.508 34.394C23.508 35.1387 23.2122 35.8529 22.6856 36.3795C22.159 36.9061 21.4447 37.202 20.7 37.202H13.6C12.8553 37.202 12.141 36.9061 11.6144 36.3795C11.0878 35.8529 10.792 35.1387 10.792 34.394C10.792 33.6492 11.0878 32.935 11.6144 32.4084C12.141 31.8818 12.8553 31.586 13.6 31.586ZM7.258 50.417H9C9.26522 50.417 9.51957 50.3116 9.70711 50.1241C9.89464 49.9365 10 49.6822 10 49.417C10 49.1517 9.89464 48.8974 9.70711 48.7099C9.51957 48.5223 9.26522 48.417 9 48.417H7.258C6.99278 48.417 6.73843 48.5223 6.55089 48.7099C6.36336 48.8974 6.258 49.1517 6.258 49.417C6.258 49.6822 6.36336 49.9365 6.55089 50.1241C6.73843 50.3116 6.99278 50.417 7.258 50.417ZM16.291 48.417H14.548C14.2828 48.417 14.0284 48.5223 13.8409 48.7099C13.6534 48.8974 13.548 49.1517 13.548 49.417C13.548 49.6822 13.6534 49.9365 13.8409 50.1241C14.0284 50.3116 14.2828 50.417 14.548 50.417H16.291C16.5562 50.417 16.8106 50.3116 16.9981 50.1241C17.1856 49.9365 17.291 49.6822 17.291 49.417C17.291 49.1517 17.1856 48.8974 16.9981 48.7099C16.8106 48.5223 16.5562 48.417 16.291 48.417ZM23.581 48.417H21.839C21.5738 48.417 21.3194 48.5223 21.1319 48.7099C20.9444 48.8974 20.839 49.1517 20.839 49.417C20.839 49.6822 20.9444 49.9365 21.1319 50.1241C21.3194 50.3116 21.5738 50.417 21.839 50.417H23.581C23.8462 50.417 24.1006 50.3116 24.2881 50.1241C24.4756 49.9365 24.581 49.6822 24.581 49.417C24.581 49.1517 24.4756 48.8974 24.2881 48.7099C24.1006 48.5223 23.8462 48.417 23.581 48.417ZM29.129 50.417H30.871C31.1362 50.417 31.3906 50.3116 31.5781 50.1241C31.7656 49.9365 31.871 49.6822 31.871 49.417C31.871 49.1517 31.7656 48.8974 31.5781 48.7099C31.3906 48.5223 31.1362 48.417 30.871 48.417H29.129C28.8638 48.417 28.6094 48.5223 28.4219 48.7099C28.2344 48.8974 28.129 49.1517 28.129 49.417C28.129 49.6822 28.2344 49.9365 28.4219 50.1241C28.6094 50.3116 28.8638 50.417 29.129 50.417ZM36.419 50.417H38.161C38.4262 50.417 38.6806 50.3116 38.8681 50.1241C39.0556 49.9365 39.161 49.6822 39.161 49.417C39.161 49.1517 39.0556 48.8974 38.8681 48.7099C38.6806 48.5223 38.4262 48.417 38.161 48.417H36.419C36.1538 48.417 35.8994 48.5223 35.7119 48.7099C35.5244 48.8974 35.419 49.1517 35.419 49.417C35.419 49.6822 35.5244 49.9365 35.7119 50.1241C35.8994 50.3116 36.1538 50.417 36.419 50.417ZM43.709 50.417H45.452C45.7172 50.417 45.9716 50.3116 46.1591 50.1241C46.3466 49.9365 46.452 49.6822 46.452 49.417C46.452 49.1517 46.3466 48.8974 46.1591 48.7099C45.9716 48.5223 45.7172 48.417 45.452 48.417H43.709C43.4438 48.417 43.1894 48.5223 43.0019 48.7099C42.8144 48.8974 42.709 49.1517 42.709 49.417C42.709 49.6822 42.8144 49.9365 43.0019 50.1241C43.1894 50.3116 43.4438 50.417 43.709 50.417ZM51 50.417H52.742C53.0072 50.417 53.2616 50.3116 53.4491 50.1241C53.6366 49.9365 53.742 49.6822 53.742 49.417C53.742 49.1517 53.6366 48.8974 53.4491 48.7099C53.2616 48.5223 53.0072 48.417 52.742 48.417H51C50.7348 48.417 50.4804 48.5223 50.2929 48.7099C50.1054 48.8974 50 49.1517 50 49.417C50 49.6822 50.1054 49.9365 50.2929 50.1241C50.4804 50.3116 50.7348 50.417 51 50.417Z" fill="black"/>
</svg>
