<svg width="136" height="45" viewBox="0 0 136 45" fill="none" xmlns="http://www.w3.org/2000/svg">
<g clip-path="url(#clip0_1_5386)">
<path fill-rule="evenodd" clip-rule="evenodd" d="M113.914 40.1542L119.717 40.1586L119.734 29.7613L122.601 29.7387L127.485 37.4482C128.024 38.2757 128.737 39.3232 129.138 40.1386L136.001 40.1629C135.617 38.9911 129.407 30.4297 128.542 28.7077L128.733 28.5869C129.277 28.3087 128.585 28.6373 128.933 28.4852L130.379 27.9219C135.337 25.5332 135.972 19.1467 132.637 15.5305C130.984 13.7381 128.04 12.7663 124.662 12.7437C121.089 12.7202 117.482 12.7132 113.91 12.7471L113.914 40.1542ZM119.734 24.5387C123.449 24.6091 128.844 25.3141 128.825 20.8165C128.806 16.3059 123.855 16.8788 119.745 17.03L119.734 24.5387Z" fill="#1C1C1C"/>
<path fill-rule="evenodd" clip-rule="evenodd" d="M64.888 38.3933V24.9023L54.0457 24.8606C53.8588 25.4952 53.8675 28.8566 54.0326 29.5225L59.7446 29.5303L59.7628 34.9241C58.6397 35.6421 55.8207 35.7925 54.3056 35.6282C52.348 35.4161 50.905 34.8502 49.5681 33.9809C43.2529 29.8763 44.7011 15.7968 57.1889 17.5214C60.1549 17.9317 60.5556 18.7314 61.969 19.1565C62.4341 18.0595 64.0709 15.4934 64.2482 14.6859C56.5839 9.26599 39.7619 12.0989 39.961 26.6869C40.094 36.4105 48.2781 41.288 56.8708 40.6821C58.9848 40.5326 63.5589 39.5738 64.888 38.3925V38.3933Z" fill="#1C1C1C"/>
<path fill-rule="evenodd" clip-rule="evenodd" d="M0 18.0117L7.23576 18.0247L7.26184 40.1249L13.105 40.1649L13.1294 18.0821L20.5494 18.0134C20.6172 17.0825 20.7068 13.4263 20.4808 12.7544L0.124305 12.7735L0.000869265 18.0117H0Z" fill="#1C1C1C"/>
<path fill-rule="evenodd" clip-rule="evenodd" d="M27.3608 40.1417L33.1727 40.1634L33.184 12.7555L27.3608 12.7485V40.1417Z" fill="#1C1C1C"/>
<path fill-rule="evenodd" clip-rule="evenodd" d="M28.8169 0.142132C27.0949 1.11571 25.618 2.33703 25.9996 4.92744C26.6881 9.59365 33.5857 9.81879 34.5219 5.07086C34.8644 3.33233 34.1681 1.88675 32.9555 0.862753C32.3018 0.310769 32.167 0.496792 31.6959 0.0439051C30.5841 0.0943224 30.1104 -0.140379 28.816 0.142132H28.8169Z" fill="#1C1C1C"/>
<path d="M89.6995 44.0896C99.8911 44.0896 108.153 35.8277 108.153 25.636C108.153 15.4443 99.8911 7.18237 89.6995 7.18237C79.5078 7.18237 71.2458 15.4443 71.2458 25.636C71.2458 35.8277 79.5078 44.0896 89.6995 44.0896Z" fill="white"/>
<path fill-rule="evenodd" clip-rule="evenodd" d="M77.5939 39.5401C79.8801 42.0879 84.9818 44.0472 89.5776 44.0889C94.4898 44.1324 99.1343 42.1322 101.751 39.5696C101.912 36.1056 97.0377 29.9921 94.3725 30.205L91.0128 35.8744C90.6433 36.5142 90.4208 37.1844 89.7358 37.4243C88.5736 37.5103 85.9745 30.4989 84.9097 30.1068C83.4476 30.086 80.818 32.6468 80.1078 33.6169C79.2351 34.8104 77.4914 37.466 77.5939 39.5418V39.5401Z" fill="#2B2A29"/>
<path fill-rule="evenodd" clip-rule="evenodd" d="M88.7041 14.7136C79.7707 16.1662 82.0803 29.1008 90.7313 27.7865C93.9493 27.298 96.9378 24.1904 96.2546 20.1578C95.7078 16.9294 92.6254 14.0765 88.7033 14.7145L88.7041 14.7136Z" fill="#2B2A29"/>
<path fill-rule="evenodd" clip-rule="evenodd" d="M73.5095 34.0654C74.0832 35.8153 75.9861 37.9441 76.8371 38.9342L77.2387 38.8899C78.0566 33.9429 82.0979 31.4837 82.6933 30.6927C82.5125 30.0407 81.6493 29.3505 80.8626 29.2184C80.009 29.9747 79.6431 31.9549 78.6182 32.3121L76.8823 29.188C75.0646 29.3505 73.5356 31.7967 73.5104 34.0646L73.5095 34.0654Z" fill="#5B5B5B"/>
<path fill-rule="evenodd" clip-rule="evenodd" d="M102.441 38.8995C103.269 38.2058 105.234 35.8014 105.591 34.5123C105.66 31.9602 104.201 29.3524 102.32 29.2272L100.526 32.2983C99.4892 31.9845 99.3527 30.0634 98.2983 29.1907C97.529 29.3289 96.7301 30.0052 96.4841 30.5328C96.7953 31.0326 97.8237 31.6655 98.3704 32.2305C99.909 33.8195 101.173 35.525 101.84 37.8233C102.254 39.2524 102.014 39.0003 102.441 38.9004V38.8995Z" fill="#5B5B5B"/>
<path fill-rule="evenodd" clip-rule="evenodd" d="M86.3518 29.7597C86.1527 30.6403 86.3579 30.7724 86.776 31.4991C89.7185 36.6087 89.2778 37.3953 91.4753 33.4558C93.2277 30.3134 94.4603 29.4294 90.2079 29.2251C89.05 29.1695 87.1663 29.2599 86.3518 29.7597Z" fill="#2B2A29"/>
<path fill-rule="evenodd" clip-rule="evenodd" d="M77.9112 23.358C74.3472 24.482 76.0284 29.8297 79.6575 28.7023C83.0842 27.6374 81.6203 22.188 77.9112 23.358Z" fill="#5B5B5B"/>
<path fill-rule="evenodd" clip-rule="evenodd" d="M99.6414 23.3071C96.0965 24.1895 97.3439 29.5963 101.037 28.7592C104.501 27.9742 103.48 22.3518 99.6414 23.3071Z" fill="#5B5B5B"/>
<path fill-rule="evenodd" clip-rule="evenodd" d="M77.3142 29.0822C77.3977 29.6612 78.2695 31.418 78.838 31.5988C79.2692 31.245 80.2202 29.5899 80.1758 28.9814C79.5022 28.7215 77.9357 28.5346 77.3142 29.0814V29.0822Z" fill="#5B5B5B"/>
<path fill-rule="evenodd" clip-rule="evenodd" d="M98.9109 29.0828C98.9943 29.7312 99.8758 31.2716 100.322 31.6019C100.827 31.3672 101.699 29.6852 101.771 29.0828C101.105 28.6446 99.5907 28.5881 98.9109 29.0828Z" fill="#5B5B5B"/>
</g>
<defs>
<clipPath id="clip0_1_5386">
<rect width="136" height="44.0894" fill="white"/>
</clipPath>
</defs>
</svg>
