<svg width="79" height="60" viewBox="0 0 79 60" fill="none" xmlns="http://www.w3.org/2000/svg">
<path d="M24.4261 52.3812C24.183 52.3238 23.9277 52.3678 23.7163 52.5037C23.5049 52.6395 23.3546 52.8559 23.2984 53.1055L22.0165 58.8163C21.9605 59.066 22.0034 59.3283 22.1356 59.5455C22.2679 59.7627 22.4788 59.9171 22.7218 59.9746C22.9649 60.0322 23.2203 59.9882 23.4318 59.8523C23.6433 59.7164 23.7935 59.4999 23.8496 59.2502L25.1314 53.5394C25.1874 53.2898 25.1446 53.0275 25.0124 52.8103C24.8801 52.5931 24.6691 52.4387 24.4261 52.3812ZM55.7027 53.1055C55.6449 52.8578 55.4941 52.6435 55.2833 52.5094C55.0724 52.3752 54.8185 52.332 54.5768 52.3893C54.3351 52.4465 54.1252 52.5994 53.9928 52.8149C53.8604 53.0303 53.8162 53.2907 53.8698 53.5394L55.1517 59.2502C55.1995 59.463 55.316 59.6529 55.4823 59.7889C55.6486 59.9249 55.8548 59.9991 56.0674 59.9993C56.6626 60.0066 57.1264 59.4117 56.9847 58.8162L55.7027 53.1055Z" fill="#1C1C1C"/>
<path d="M78.9945 58.9163L77.9979 50.3263C77.5082 46.1069 76.6832 43.0313 75.4756 40.9243C74.3779 39.0087 72.9238 37.7721 70.8991 37.0326C69.7396 36.6109 68.576 36.2011 67.4086 35.8031C68.3977 35.304 69.2894 34.6025 70.0337 33.722C71.4978 31.9897 72.2175 29.7753 72.0603 27.4868C71.9029 25.1984 70.8875 23.1099 69.2009 21.6062C67.5143 20.1024 65.3596 19.3628 63.1303 19.5246C60.9025 19.6861 58.869 20.7291 57.4049 22.4616C55.9408 24.1939 55.221 26.4083 55.3783 28.6967C55.5356 30.985 56.551 33.0737 58.2377 34.5774C58.7822 35.063 59.3852 35.4747 60.0319 35.8023C58.943 36.1745 57.7189 36.6018 56.5394 37.0325C54.6934 37.7067 53.3206 38.7982 52.2608 40.4384C51.68 40.3143 51.0983 40.1944 50.5159 40.0789C48.7548 39.7258 46.7584 39.3254 46.2871 38.8421C45.2073 37.7576 45.1016 35.8053 45.1151 34.9078C48.349 32.9328 50.522 29.3089 50.522 25.172V23.8241C52.4222 23.3831 53.8455 21.6348 53.8455 19.5517C53.8455 18.088 53.1422 16.7907 52.0652 15.995C52.7125 12.6588 52.5774 9.72685 51.6611 7.27113C51.6169 7.15267 51.5504 7.04431 51.4655 6.95223C51.3805 6.86016 51.2787 6.78617 51.1659 6.7345C51.0532 6.68283 50.9316 6.65449 50.8081 6.6511C50.6846 6.6477 50.5617 6.66932 50.4464 6.71472C50.3311 6.76009 50.2256 6.82835 50.1359 6.91561C50.0463 7.00286 49.9743 7.1074 49.924 7.22325C49.8737 7.33911 49.8461 7.464 49.8428 7.59081C49.8395 7.71762 49.8605 7.84385 49.9047 7.9623C50.6577 9.98091 50.7853 12.4237 50.29 15.2337C50.0559 15.1929 49.8188 15.1722 49.5813 15.172C49.3679 15.172 49.1609 15.2465 48.9941 15.3834C48.8274 15.5202 48.711 15.7112 48.6639 15.925C48.6068 16.1842 48.5062 16.3797 48.3894 16.5268L47.4053 12.522C47.3699 12.3777 47.3025 12.2438 47.2083 12.1307C47.1142 12.0176 46.9959 11.9284 46.8627 11.87C46.7295 11.8116 46.5849 11.7856 46.4403 11.794C46.2957 11.8024 46.1549 11.845 46.0289 11.9185C45.9576 11.9602 38.84 16.0325 34.3365 11.6236C34.2141 11.504 34.0626 11.4205 33.898 11.3817C33.7333 11.343 33.5616 11.3504 33.4007 11.4033C33.2398 11.4564 33.0957 11.5529 32.9837 11.6828C32.8716 11.8127 32.7957 11.9712 32.7638 12.1417C32.5856 13.0945 31.8732 15.6188 30.7049 16.622L30.2615 15.7073C30.1835 15.5465 30.0634 15.4112 29.9147 15.3167C29.766 15.2221 29.5945 15.172 29.4196 15.172C28.981 15.172 28.5575 15.2406 28.159 15.3675C28.0043 14.5357 27.8306 13.0681 27.8274 10.6598C27.8208 6.03208 31.3586 5.67772 31.7567 5.65277C31.8813 5.64608 32.0034 5.61419 32.116 5.55894C32.2285 5.50368 32.3294 5.42614 32.4127 5.33077C32.5528 5.17025 35.9052 1.40899 41.4199 1.99342C42.8223 2.14234 44.1226 2.49283 45.2842 3.03492C45.3966 3.08748 45.518 3.11676 45.6415 3.1211C45.7649 3.12543 45.888 3.10474 46.0036 3.0602C46.1193 3.01565 46.2252 2.94814 46.3155 2.8615C46.4057 2.77487 46.4784 2.67082 46.5294 2.5553C46.5805 2.43983 46.609 2.31515 46.6132 2.18839C46.6174 2.06162 46.5972 1.93524 46.5539 1.81647C46.5105 1.69771 46.4448 1.58888 46.3605 1.4962C46.2762 1.40352 46.1749 1.32881 46.0625 1.27632C44.7154 0.64746 43.2183 0.242227 41.613 0.0718899C35.9917 -0.523324 32.2818 2.74351 31.2769 3.75941C29.2334 4.03311 25.9393 5.72827 25.9464 10.6627C25.9508 13.8103 26.2293 15.5278 26.4566 16.4067C25.6551 17.2035 25.1556 18.3186 25.1556 19.5518C25.1556 21.635 26.5789 23.3833 28.4791 23.8243V25.1721C28.4791 29.309 30.652 32.9328 33.8858 34.9079C33.899 35.8057 33.7919 37.7594 32.7068 38.8494C32.2426 39.3254 30.2464 39.7257 28.4852 40.0789C27.9027 40.1944 27.3211 40.3142 26.7403 40.4384C25.6804 38.7982 24.3076 37.7069 22.4615 37.0325C21.2826 36.602 20.0584 36.1747 18.9694 35.8023C19.616 35.4747 20.219 35.063 20.7633 34.5774C22.4501 33.0735 23.4655 30.985 23.6227 28.6967C23.78 26.4085 23.0602 24.1939 21.5961 22.4616C20.132 20.7291 18.0986 19.6861 15.8708 19.5246C13.6423 19.3631 11.4868 20.1021 9.80022 21.6062C8.11361 23.1101 7.0982 25.1984 6.94082 27.4868C6.7836 29.7753 7.50323 31.9897 8.96742 33.722C9.69812 34.589 10.5908 35.2966 11.5925 35.8029C10.5045 36.1748 9.28138 36.6018 8.10201 37.0325C6.07729 37.7719 4.62314 39.0084 3.52543 40.9241C2.31785 43.0313 1.49288 46.1067 1.0032 50.3262L0.00659647 58.9161C-0.0228837 59.1705 0.047216 59.4265 0.201479 59.6279C0.355743 59.8292 0.581538 59.9593 0.829211 59.9897C1.33519 60.0549 1.81516 59.6764 1.87441 59.1448L2.87101 50.5548C3.83266 42.2682 5.90957 39.8836 8.73214 38.8527C11.0415 38.0094 13.5272 37.1782 14.8035 36.7575C15.1146 36.6546 15.4493 36.6546 15.7604 36.7575C17.0379 37.1785 19.5257 38.0107 21.8311 38.8527C23.0534 39.299 23.9873 39.9522 24.7485 40.9105C20.5735 42.0072 16.1151 43.987 14.9811 48.7635C13.0208 57.0184 12.6905 58.7823 12.6773 58.8533C12.631 59.1049 12.6838 59.3651 12.8241 59.5767C12.9644 59.7883 13.1808 59.9341 13.4256 59.9819C13.9233 60.0831 14.4302 59.7408 14.5254 59.2138C14.5287 59.1964 14.8707 57.3815 16.8084 49.2216C18.0135 44.1472 24.274 42.8919 28.8454 41.9752L28.9211 41.9599C29.5831 43.4813 31.3854 46.616 35.1502 47.1081C35.3367 47.1323 35.526 47.0984 35.6936 47.0109L37.0863 48.0408L35.2128 58.8643C35.1692 59.1165 35.2249 59.3762 35.3677 59.5863C35.5105 59.7963 35.7286 59.9395 35.9742 59.9844C36.4734 60.0795 36.9761 59.7306 37.0647 59.2024L38.9036 48.5779H40.0963L41.9353 59.2024C41.9739 59.4256 42.0877 59.6277 42.2568 59.7734C42.4259 59.9192 42.6394 59.9992 42.8601 59.9995C43.4381 60.005 43.8945 59.4489 43.7871 58.8643L41.9137 48.0408L43.3067 47.0106C43.4741 47.0983 43.6634 47.1322 43.8498 47.108C47.6146 46.6158 49.4171 43.4813 50.0788 41.9597L50.1546 41.975C54.726 42.8916 60.9865 44.147 62.1916 49.2214C64.1293 57.3815 64.4715 59.1963 64.4744 59.2132C64.5152 59.4341 64.6297 59.6334 64.7982 59.777C64.9667 59.9205 65.1786 59.9992 65.3975 59.9995C65.9794 60.0056 66.4376 59.4407 66.3227 58.8535C66.3095 58.7825 65.9792 57.0188 64.0189 48.7637C62.8849 43.9873 58.4263 42.0074 54.2515 40.9106C55.0126 39.9524 55.9466 39.2993 57.1687 38.8529C59.4761 38.0104 61.9627 37.1787 63.2397 36.7577C63.3909 36.7078 63.5485 36.6818 63.7073 36.6807L63.7225 36.6804C63.8822 36.6809 64.0418 36.7065 64.197 36.7575C65.4739 37.1783 67.9607 38.0101 70.2679 38.8527C73.0904 39.8835 75.1673 42.2682 76.129 50.5548L77.1256 59.1448C77.1551 59.3992 77.2818 59.6311 77.4778 59.7896C77.6738 59.948 77.9231 60.02 78.1708 59.9897C78.4185 59.9594 78.6443 59.8292 78.7986 59.6279C78.9528 59.4266 79.0229 59.1705 78.9934 58.9161L78.9945 58.9163ZM8.81725 27.623C9.05802 24.1203 11.9097 21.435 15.2773 21.435C15.4298 21.435 15.5838 21.4405 15.7382 21.4518C17.465 21.5769 19.0408 22.3853 20.1757 23.728C21.3105 25.0707 21.8684 26.787 21.7465 28.5605C21.6247 30.3343 20.8376 31.9528 19.5304 33.1184C18.2231 34.2842 16.551 34.8579 14.8254 34.7318C11.2608 34.4734 8.56536 31.2842 8.81725 27.623ZM30.3602 25.1721V22.9657C30.3602 22.7095 30.2612 22.4638 30.0848 22.2826C29.9084 22.1014 29.6692 21.9997 29.4198 21.9997C28.1057 21.9997 27.0367 20.9016 27.0367 19.5518C27.0367 18.3967 27.8198 17.4258 28.8694 17.17L29.4455 18.358C29.5423 18.5578 29.7035 18.717 29.9017 18.8085C30.0998 18.9 30.3227 18.9182 30.5325 18.86C32.5959 18.288 33.7096 15.721 34.2329 14.0144C38.4488 16.9539 43.6368 15.1677 45.8659 14.1514L46.852 18.1639C46.9076 18.3902 47.0411 18.5883 47.2279 18.7213C47.4146 18.8543 47.642 18.9133 47.8679 18.8874C48.5208 18.8127 49.62 18.3651 50.2064 17.1895C51.2182 17.4724 51.9645 18.4242 51.9645 19.5518C51.9645 20.9016 50.8955 21.9997 49.5815 21.9997C49.332 21.9997 49.0928 22.1014 48.9165 22.2826C48.7401 22.4638 48.641 22.7095 48.641 22.9657V25.1721C48.641 30.3488 44.5406 34.5603 39.5007 34.5603C34.4608 34.5603 30.3602 30.3489 30.3602 25.1721ZM39.5005 36.4923C40.7829 36.4935 42.0554 36.2636 43.2605 35.8132C43.3324 36.8291 43.5711 38.1625 44.2516 39.2926C43.2959 39.845 41.5676 40.6352 39.5005 40.6352C37.4471 40.6352 35.7107 39.8419 34.7497 39.289C35.4289 38.158 35.6677 36.827 35.7402 35.8131C36.9453 36.2635 38.2181 36.4934 39.5005 36.4923ZM38.4194 46.6457L37.0504 45.6332L39.5005 42.9996L41.9507 45.6332L40.5816 46.6457H38.4194ZM34.9337 45.1122C32.6549 44.6115 31.3981 42.7423 30.8164 41.5628C31.8827 41.3194 32.7492 41.0624 33.3819 40.7053C34.1477 41.1956 35.6124 41.9958 37.4877 42.3667L34.9337 45.1122ZM44.0674 45.1122L41.5133 42.3667C43.3898 41.9954 44.8552 41.1946 45.6206 40.7044C46.2551 41.0623 47.1205 41.3196 48.1844 41.5627C47.6024 42.7431 46.3459 44.6117 44.0674 45.1122ZM57.2548 28.5605C57.1328 26.787 57.6905 25.0707 58.8255 23.728C59.9602 22.3853 61.5362 21.577 63.2631 21.4518C63.4176 21.4405 63.5713 21.435 63.7239 21.435C67.0913 21.435 69.9432 24.1205 70.184 27.623C70.4357 31.2842 67.7404 34.4732 64.1758 34.7316C62.4507 34.8575 60.7783 34.2841 59.4709 33.1183C58.1636 31.9528 57.3767 30.3343 57.2548 28.5605Z" fill="#1C1C1C"/>
<path d="M48.765 5.3224C49.2844 5.3224 49.7055 4.88991 49.7055 4.3564C49.7055 3.8229 49.2844 3.39041 48.765 3.39041C48.2456 3.39041 47.8245 3.8229 47.8245 4.3564C47.8245 4.88991 48.2456 5.3224 48.765 5.3224Z" fill="#1C1C1C"/>
</svg>
