<svg width="39" height="39" viewBox="0 0 39 39" fill="none" xmlns="http://www.w3.org/2000/svg">
<path d="M39 19.5C39 30.2696 30.2696 39 19.5 39C8.73045 39 0 30.2696 0 19.5C0 8.73045 8.73045 0 19.5 0C30.2696 0 39 8.73045 39 19.5Z" fill="#FEE02E"/>
<path fill-rule="evenodd" clip-rule="evenodd" d="M7.38607 19.1106L12.456 20.9882L14.419 27.2476C14.5445 27.6476 15.0383 27.7966 15.3675 27.5313L18.1926 25.2455C18.4889 25.0067 18.9107 24.9945 19.2194 25.2169L24.3161 28.8865C24.6679 29.1395 25.1638 28.9477 25.2523 28.5273L28.9869 10.7143C29.0836 10.2551 28.6288 9.87143 28.1865 10.0408L7.38195 18.0003C6.86961 18.1962 6.87372 18.9187 7.38813 19.1085L7.38607 19.1106ZM14.1021 19.9882L24.0095 13.9349C24.1885 13.8267 24.3717 14.0655 24.2173 14.2063L16.0404 21.7454C15.7523 22.0107 15.5671 22.3658 15.5157 22.7515L15.2379 24.7985C15.2009 25.072 14.814 25.0986 14.7379 24.8353L13.6659 21.1025C13.5424 20.6759 13.7215 20.2208 14.1021 19.9882Z" fill="#1C1C1C"/>
</svg>
