<svg width="31" height="31" viewBox="0 0 31 31" fill="none" xmlns="http://www.w3.org/2000/svg">
<path d="M24.2188 31H15.5C15.2431 31 14.9967 30.8979 14.815 30.7163C14.6333 30.5346 14.5312 30.2882 14.5312 30.0313V22.9274C14.5312 22.6704 14.6333 22.424 14.815 22.2424C14.9967 22.0607 15.2431 21.9586 15.5 21.9586H24.2188C24.4757 21.9586 24.7221 22.0607 24.9038 22.2424C25.0854 22.424 25.1875 22.6704 25.1875 22.9274V30.0313C25.1875 30.2882 25.0854 30.5346 24.9038 30.7163C24.7221 30.8979 24.4757 31 24.2188 31ZM16.4688 29.0626H23.25V23.8961H16.4688V29.0626Z" fill="black"/>
<path d="M19.6979 23.8961H11.3021C11.0452 23.8961 10.7987 23.794 10.6171 23.6123C10.4354 23.4307 10.3333 23.1843 10.3333 22.9274V15.1776C10.3333 14.9207 10.4354 14.6743 10.6171 14.4926C10.7987 14.311 11.0452 14.2089 11.3021 14.2089H19.6979C19.9548 14.2089 20.2013 14.311 20.3829 14.4926C20.5646 14.6743 20.6667 14.9207 20.6667 15.1776V22.9274C20.6667 23.1843 20.5646 23.4307 20.3829 23.6123C20.2013 23.794 19.9548 23.8961 19.6979 23.8961ZM12.2708 21.9586H18.7292V16.1463H12.2708V21.9586Z" fill="black"/>
<path d="M15.5 31H6.78125C6.52432 31 6.27792 30.8979 6.09624 30.7163C5.91456 30.5346 5.8125 30.2882 5.8125 30.0313V22.9274C5.8125 22.6704 5.91456 22.424 6.09624 22.2424C6.27792 22.0607 6.52432 21.9586 6.78125 21.9586H15.5C15.7569 21.9586 16.0033 22.0607 16.185 22.2424C16.3667 22.424 16.4688 22.6704 16.4688 22.9274V30.0313C16.4688 30.2882 16.3667 30.5346 16.185 30.7163C16.0033 30.8979 15.7569 31 15.5 31ZM7.75 29.0626H14.5312V23.8961H7.75V29.0626ZM15.5 18.0838C15.2431 18.0838 14.9967 17.9817 14.815 17.8C14.6333 17.6184 14.5312 17.372 14.5312 17.1151V15.1776C14.5312 14.9207 14.6333 14.6743 14.815 14.4926C14.9967 14.311 15.2431 14.2089 15.5 14.2089C15.7569 14.2089 16.0033 14.311 16.185 14.4926C16.3667 14.6743 16.4688 14.9207 16.4688 15.1776V17.1151C16.4688 17.372 16.3667 17.6184 16.185 17.8C16.0033 17.9817 15.7569 18.0838 15.5 18.0838Z" fill="black"/>
<path d="M11.3021 25.8335C11.0452 25.8335 10.7987 25.7314 10.6171 25.5498C10.4354 25.3681 10.3333 25.1217 10.3333 24.8648V22.9274C10.3333 22.6704 10.4354 22.424 10.6171 22.2424C10.7987 22.0607 11.0452 21.9586 11.3021 21.9586C11.559 21.9586 11.8054 22.0607 11.9871 22.2424C12.1688 22.424 12.2708 22.6704 12.2708 22.9274V24.8648C12.2708 25.1217 12.1688 25.3681 11.9871 25.5498C11.8054 25.7314 11.559 25.8335 11.3021 25.8335ZM19.6979 25.8335C19.441 25.8335 19.1946 25.7314 19.0129 25.5498C18.8312 25.3681 18.7292 25.1217 18.7292 24.8648V22.9274C18.7292 22.6704 18.8312 22.424 19.0129 22.2424C19.1946 22.0607 19.441 21.9586 19.6979 21.9586C19.9548 21.9586 20.2013 22.0607 20.3829 22.2424C20.5646 22.424 20.6667 22.6704 20.6667 22.9274V24.8648C20.6667 25.1217 20.5646 25.3681 20.3829 25.5498C20.2013 25.7314 19.9548 25.8335 19.6979 25.8335Z" fill="black"/>
<path d="M28.7396 31H2.26042C1.01396 31 0 29.9861 0 28.7397V10.9798C0 10.6608 0.157583 10.3624 0.419792 10.1816L14.951 0.171546C15.1126 0.0598395 15.3043 0 15.5006 0C15.697 0 15.8887 0.0598395 16.0502 0.171546L30.5815 10.1816C30.8424 10.3624 31 10.6608 31 10.9798V28.7397C31 29.9861 29.986 31 28.7396 31ZM1.9375 11.4887V28.7397C1.9375 28.9179 2.08217 29.0626 2.26042 29.0626H28.7396C28.8252 29.0626 28.9074 29.0285 28.9679 28.968C29.0285 28.9074 29.0625 28.8253 29.0625 28.7397V11.4887L15.5 2.14644L1.9375 11.4887Z" fill="black"/>
</svg>
