<svg width="32" height="29" viewBox="0 0 32 29" fill="none" xmlns="http://www.w3.org/2000/svg">
<path fill-rule="evenodd" clip-rule="evenodd" d="M0 29V0H1.87152V11.3812H4.44198V2.76934H15.0562V11.3812H16.9276V2.76934H27.5418V11.3812H30.1285V0H32V29H30.1285V26.6419H1.87152V29H0ZM1.87152 24.7984H4.44198V16.1865H15.0562V24.7984H16.9276V16.1865H27.5418V24.7984H30.1285V13.2247H1.87152V24.7984ZM25.6703 24.7984V18.03H23.1705V20.5636H21.299V18.03H18.7991V24.7984H25.6703ZM13.1846 24.7984V18.03H10.6848V20.5636H8.81328V18.03H6.3135V24.7984H13.1846ZM25.6703 11.3812V4.61286H23.1705V7.14647H21.299V4.61286H18.7991V11.3812H25.6703ZM13.1846 11.3812V4.61286H10.6848V7.14647H8.81328V4.61286H6.3135V11.3812H13.1846Z" fill="black"/>
</svg>
