<svg width="35" height="35" viewBox="0 0 35 35" fill="none" xmlns="http://www.w3.org/2000/svg">
<path d="M29.3645 13.5187C22.8225 10.6886 12.1774 10.6886 5.63545 13.5187C5.4768 13.5875 5.30135 13.6077 5.13123 13.5768C4.96111 13.5459 4.80396 13.4653 4.67961 13.3452C4.55527 13.225 4.4693 13.0707 4.43257 12.9018C4.39584 12.7328 4.40999 12.5568 4.47323 12.3959C6.56954 7.03137 11.7404 3.50026 17.5002 3.50026C23.26 3.50026 28.4308 7.03145 30.5267 12.3961C30.5898 12.557 30.6039 12.7331 30.5671 12.902C30.5303 13.0709 30.4444 13.2251 30.32 13.3452C30.1957 13.4653 30.0386 13.5458 29.8686 13.5768C29.6986 13.6077 29.5232 13.5876 29.3646 13.519L29.3645 13.5187ZM17.5002 5.24998C13.2234 5.23432 9.25285 7.46671 7.04384 11.129C10.4335 10.1034 13.959 9.59712 17.5002 9.6274C21.0414 9.59715 24.5668 10.1034 27.9563 11.129C25.7471 7.46671 21.7766 5.23423 17.5002 5.24998H17.5002Z" fill="black"/>
<path d="M17.5002 0C27.1651 0 35 7.83494 35 17.4998C35 27.1647 27.1651 35 17.5002 35C7.83527 35 0 27.1647 0 17.4998C0.01091 7.83937 7.83937 0.0108281 17.5002 0ZM17.5002 33.2498C26.1986 33.2498 33.2501 26.1984 33.2501 17.4998C33.2501 8.80135 26.1986 1.74989 17.5002 1.74989C8.8016 1.74989 1.75021 8.80135 1.75021 17.4998C1.76014 26.1941 8.80586 33.2399 17.5002 33.2498Z" fill="black"/>
<path d="M3.81124 17.8382C3.90248 17.7498 4.01163 17.6821 4.13131 17.6395C4.25099 17.5969 4.37842 17.5806 4.50498 17.5915C11.3683 18.2314 15.1245 22.5012 15.6698 30.2822C15.6794 30.4172 15.6576 30.5526 15.606 30.6777C15.5544 30.8028 15.4744 30.9142 15.3725 31.0032C15.2705 31.0921 15.1493 31.1562 15.0183 31.1904C14.8874 31.2245 14.7503 31.2278 14.6178 31.2C8.5254 29.899 4.01952 24.7384 3.55137 18.5262C3.54199 18.3995 3.56039 18.2723 3.60528 18.1535C3.65017 18.0347 3.72046 17.9271 3.81124 17.8382ZM13.8062 29.18C13.0987 23.4849 10.3445 20.2959 5.42266 19.4737C6.17603 24.0252 9.41273 27.7726 13.8062 29.18ZM30.495 17.5915C30.7507 17.5726 31.0026 17.662 31.1891 17.8382C31.2798 17.9271 31.3501 18.0347 31.3949 18.1535C31.4397 18.2724 31.4581 18.3995 31.4486 18.5262C30.9808 24.7384 26.4745 29.899 20.3822 31.2C20.3232 31.2125 20.2632 31.2189 20.203 31.2189C19.9602 31.2189 19.7281 31.118 19.5628 30.9405C19.4809 30.8526 19.418 30.7488 19.378 30.6356C19.338 30.5223 19.3218 30.402 19.3304 30.2822C19.8755 22.5012 23.632 18.2315 30.495 17.5915ZM29.5773 19.4737C24.6555 20.2959 21.9017 23.4849 21.1941 29.18C25.5876 27.7727 28.824 24.0252 29.5773 19.4737ZM14.0001 17.4998C14.0001 15.567 15.567 14.0001 17.5002 14.0001C19.433 14.0001 20.9999 15.567 20.9999 17.4998C20.9999 19.433 19.433 20.9999 17.5002 20.9999C15.5679 20.998 14.002 19.4321 14.0001 17.4998ZM17.5002 19.25C18.4666 19.25 19.25 18.4667 19.25 17.4998C19.25 16.5334 18.4667 15.75 17.5002 15.75C16.5334 15.75 15.75 16.5333 15.75 17.4998C15.7513 18.4659 16.5341 19.2487 17.5002 19.25Z" fill="black"/>
</svg>
