<svg width="39" height="39" viewBox="0 0 39 39" fill="none" xmlns="http://www.w3.org/2000/svg">
<path d="M39 19.5C39 30.2696 30.2696 39 19.5 39C8.73045 39 0 30.2696 0 19.5C0 8.73045 8.73045 0 19.5 0C30.2696 0 39 8.73045 39 19.5Z" fill="#FEE02E"/>
<path fill-rule="evenodd" clip-rule="evenodd" d="M19.1982 9H19.2033C24.8278 9 29.4015 13.5763 29.4015 19.2008C29.4015 24.8252 24.8278 29.4015 19.2033 29.4015C17.1287 29.4015 15.2046 28.7844 13.5916 27.7158L9.67072 28.9693L10.942 25.1797C9.71918 23.5004 9 21.4322 9 19.2008C9 13.575 13.5738 9 19.1982 9ZM23.137 24.8443C23.916 24.676 24.8928 24.0997 25.1389 23.4048C25.385 22.7086 25.385 22.1156 25.3136 21.9894C25.2559 21.8893 25.1196 21.8236 24.9162 21.7257C24.8632 21.7001 24.8056 21.6724 24.7436 21.6413C24.444 21.4921 22.9865 20.7717 22.7111 20.676C22.4407 20.5741 22.1832 20.6097 21.9792 20.8979C21.9403 20.9524 21.9014 21.007 21.8628 21.0613C21.6168 21.4073 21.3796 21.741 21.1823 21.9537C21.0024 22.145 20.7091 22.1692 20.4631 22.0672C20.4362 22.056 20.4054 22.0436 20.3709 22.0296C19.9812 21.8722 19.1171 21.5232 18.071 20.5919C17.1887 19.8064 16.5894 18.8284 16.4159 18.5352C16.2457 18.241 16.3925 18.0685 16.5283 17.909C16.5308 17.9061 16.5333 17.9031 16.5358 17.9002C16.6233 17.7919 16.7082 17.7017 16.7936 17.6111C16.855 17.546 16.9166 17.4806 16.9795 17.408C16.989 17.3971 16.9982 17.3864 17.0072 17.3761C17.1406 17.2227 17.2201 17.1312 17.3097 16.9401C17.4118 16.7424 17.3391 16.5384 17.2664 16.3879C17.2162 16.2823 16.9058 15.5289 16.6401 14.8843C16.5275 14.611 16.4229 14.3573 16.3496 14.1807C16.1519 13.7077 16.0015 13.6898 15.7018 13.6771C15.6927 13.6766 15.6835 13.6761 15.6742 13.6757C15.5795 13.6709 15.4751 13.6656 15.3601 13.6656C14.97 13.6656 14.5632 13.7804 14.3171 14.0315C14.3085 14.0403 14.2995 14.0494 14.2902 14.0589C13.9754 14.379 13.2741 15.0923 13.2741 16.5141C13.2741 17.9386 14.2848 19.3173 14.4719 19.5724C14.477 19.5794 14.4816 19.5856 14.4854 19.5909C14.4967 19.6057 14.518 19.6365 14.5489 19.6813C14.931 20.2346 16.7909 22.9278 19.5641 24.0767C21.9077 25.0484 22.604 24.9578 23.137 24.8443Z" fill="#1C1C1C"/>
</svg>
